<svg xmlns="http://www.w3.org/2000/svg" version="1.1" xmlns:xlink="http://www.w3.org/1999/xlink" xmlns:svgjs="http://svgjs.dev/svgjs" width="1000" height="487" viewBox="0 0 1000 487"><g transform="matrix(1,0,0,1,-0.6060606060606233,-0.21013227968484216)"><svg viewBox="0 0 396 193" data-background-color="#ffffff" preserveAspectRatio="xMidYMid meet" height="487" width="1000" xmlns="http://www.w3.org/2000/svg" xmlns:xlink="http://www.w3.org/1999/xlink"><g id="tight-bounds" transform="matrix(1,0,0,1,0.2400000000000091,0.08327624225702834)"><svg viewBox="0 0 395.52 192.83344751548594" height="192.83344751548594" width="395.52"><g><svg viewBox="0 0 395.52 192.83344751548594" height="192.83344751548594" width="395.52"><g transform="matrix(1,0,0,1,0,134.55934093241385)"><svg viewBox="0 0 395.52 58.27410658307211" height="58.27410658307211" width="395.52"><g id="textblocktransform"><svg viewBox="0 0 395.52 58.27410658307211" height="58.27410658307211" width="395.52" id="textblock"><g><svg viewBox="0 0 395.52 58.27410658307211" height="58.27410658307211" width="395.52"><g transform="matrix(1,0,0,1,0,0)"><svg width="395.52" viewBox="2.2 -35.8 334.92 49.349999999999994" height="58.27410658307211" data-palette-color="#152232"><path d="M23.1 0.5L21.6 0.5Q19.4-4.5 17.15-9.47 14.9-14.45 12.75-19.55L12.75-19.55Q12.05-21.15 11.38-22.78 10.7-24.4 10.08-26.05 9.45-27.7 8.8-29.35L8.8-29.35Q8.8-28.8 8.78-28.25 8.75-27.7 8.75-27.15L8.75-27.15Q8.7-25.35 8.63-22.83 8.55-20.3 8.45-17.43 8.35-14.55 8.3-11.68 8.25-8.8 8.2-6.25L8.2-6.25Q8.15-5.15 8.13-4.05 8.1-2.95 8-2L8-2Q8.95-2.05 9.88-2.1 10.8-2.15 11.75-2.2L11.75-2.2 11.75 0 2.2 0 2.2-1.65Q3.75-1.7 4.48-2.33 5.2-2.95 5.4-4 5.6-5.05 5.65-6.25L5.65-6.25 6.6-29.05Q6.65-30.05 6.68-31.05 6.7-32.05 6.75-33L6.75-33Q5.85-32.95 4.95-32.93 4.05-32.9 3.15-32.85L3.15-32.85 3.15-35 10.8-35 19.4-15.15Q20.05-13.65 20.68-12.15 21.3-10.65 21.98-9.15 22.65-7.65 23.3-6.1L23.3-6.1 23.4-6.1Q23.95-7.45 24.7-9.33 25.45-11.2 25.95-12.55L25.95-12.55Q28.15-18.05 30.53-23.58 32.9-29.1 35.2-35L35.2-35 42.6-35 42.6-33.35Q41.35-33.4 40.55-32.88 39.75-32.35 39.4-31.15 39.05-29.95 39.15-27.9L39.15-27.9 40.45-5.15Q40.55-4.3 40.55-3.5 40.55-2.7 40.55-2.05L40.55-2.05Q41.45-2.1 42.38-2.13 43.3-2.15 44.2-2.2L44.2-2.2 44.2 0 33 0 33-1.65Q34.55-1.7 35.3-2.4 36.05-3.1 36.23-4.4 36.4-5.7 36.3-7.6L36.3-7.6 35.3-24.1Q35.25-24.9 35.2-25.7 35.15-26.5 35.1-27.3 35.05-28.1 35-28.9L35-28.9Q34.85-28.55 34.68-28.15 34.5-27.75 34.35-27.3L34.35-27.3 23.1 0.5ZM70.45 0L63.3 0Q63.15-0.85 63.1-1.5 63.05-2.15 62.95-2.85L62.95-2.85Q61.25-1.15 59.27-0.18 57.3 0.8 55.1 0.8L55.1 0.8Q51.3 0.8 49.45-0.93 47.6-2.65 47.6-5.15L47.6-5.15Q47.6-7.45 49.02-9.13 50.45-10.8 52.72-11.88 55-12.95 57.67-13.48 60.35-14 62.85-13.95L62.85-13.95 62.85-17.05Q62.85-18.8 62.55-20.35 62.25-21.9 61.25-22.9 60.25-23.9 58.05-23.95L58.05-23.95Q56.6-24 55.07-23.4 53.55-22.8 52.85-21.35L52.85-21.35Q53.25-20.95 53.37-20.43 53.5-19.9 53.5-19.45L53.5-19.45Q53.5-18.85 53-18.07 52.5-17.3 51.25-17.35L51.25-17.35Q50.2-17.35 49.65-18.07 49.1-18.8 49.1-19.8L49.1-19.8Q49.1-21.5 50.37-22.85 51.65-24.2 53.9-25 56.15-25.8 59-25.8L59-25.8Q63.2-25.8 65.2-23.58 67.2-21.35 67.15-16.55L67.15-16.55Q67.15-14.7 67.15-12.83 67.15-10.95 67.12-9.08 67.1-7.2 67.1-5.3L67.1-5.3Q67.1-4.5 67.05-3.7 67-2.9 66.9-1.9L66.9-1.9Q67.8-1.95 68.67-2 69.55-2.05 70.45-2.1L70.45-2.1 70.45 0ZM62.85-12.25L62.85-12.25Q61.15-12.2 59.27-11.83 57.4-11.45 55.82-10.7 54.25-9.95 53.27-8.72 52.3-7.5 52.35-5.75L52.35-5.75Q52.45-3.9 53.57-2.98 54.7-2.05 56.25-2.05L56.25-2.05Q58.3-2.05 59.82-2.83 61.35-3.6 62.85-5L62.85-5Q62.8-5.55 62.8-6.2 62.8-6.85 62.8-7.55L62.8-7.55Q62.8-7.8 62.82-9.15 62.85-10.5 62.85-12.25ZM85.95 13.55L85.95 13.55Q81.45 13.55 78.7 12.55 75.95 11.55 74.7 10 73.45 8.45 73.45 6.8L73.45 6.8Q73.45 5.25 74.17 4.08 74.9 2.9 75.97 2.05 77.05 1.2 78.05 0.8L78.05 0.8Q76.45 0.25 75.52-0.68 74.6-1.6 74.6-3.15L74.6-3.15Q74.6-4.9 76-6.43 77.4-7.95 79.6-8.3L79.6-8.3Q77.3-9.4 75.92-11.35 74.55-13.3 74.55-15.9L74.55-15.9Q74.55-18.9 76.1-21.13 77.65-23.35 80.07-24.58 82.5-25.8 85.1-25.8L85.1-25.8Q86.75-25.8 88.4-25.33 90.05-24.85 91.45-23.95L91.45-23.95Q91.95-25.35 92.87-26.45 93.8-27.55 95-28.18 96.2-28.8 97.5-28.8L97.5-28.8Q98.8-28.8 99.47-28.13 100.15-27.45 100.15-26.3L100.15-26.3Q100.15-25.95 99.95-25.45 99.75-24.95 99.27-24.6 98.8-24.25 98-24.25L98-24.25Q97.15-24.25 96.6-24.75 96.05-25.25 95.9-26L95.9-26Q94.65-25.8 93.95-24.83 93.25-23.85 93-22.7L93-22.7Q94.2-21.6 94.92-20.05 95.65-18.5 95.65-16.75L95.65-16.75Q95.65-13.95 94.17-11.75 92.7-9.55 90.3-8.33 87.9-7.1 85.1-7.1L85.1-7.1Q84.15-7.1 83.45-7.23 82.75-7.35 81.75-7.35L81.75-7.35Q79.9-7.35 78.75-6.45 77.6-5.55 77.95-4.3L77.95-4.3Q78.35-3.1 80.4-2.78 82.45-2.45 85.9-2.3L85.9-2.3Q89.75-2.15 92.5-1.4 95.25-0.65 96.72 0.93 98.2 2.5 98.2 5.2L98.2 5.2Q98.2 7.2 97.12 8.78 96.05 10.35 94.27 11.4 92.5 12.45 90.32 13 88.15 13.55 85.95 13.55ZM85.9 11.6L85.9 11.6Q90.2 11.6 92.6 10 95 8.4 95 6.25L95 6.25Q95 4.4 93.75 3.43 92.5 2.45 90.35 2.08 88.2 1.7 85.4 1.65L85.4 1.65Q84.05 1.6 82.75 1.53 81.45 1.45 80.25 1.25L80.25 1.25Q78.9 2.15 78.15 3.45 77.4 4.75 77.4 6.2L77.4 6.2Q77.4 8.65 79.72 10.13 82.05 11.6 85.9 11.6ZM85.25-8.9L85.25-8.9Q87.1-8.9 88.32-9.8 89.55-10.7 90.17-12.25 90.8-13.8 90.8-15.75L90.8-15.75Q90.8-17.95 90.15-19.85 89.5-21.75 88.22-22.9 86.95-24.05 85-24.05L85-24.05Q82.3-24.05 80.82-22.03 79.35-20 79.35-17L79.35-17Q79.35-14.6 80.05-12.78 80.75-10.95 82.07-9.93 83.4-8.9 85.25-8.9ZM113.39 0.8L113.39 0.8Q109.94 0.8 107.17-0.83 104.39-2.45 102.79-5.43 101.19-8.4 101.19-12.45L101.19-12.45Q101.19-15.95 102.77-19 104.34-22.05 107.19-23.93 110.04-25.8 113.79-25.8L113.79-25.8Q115.89-25.8 117.72-25.13 119.54-24.45 120.94-23.08 122.34-21.7 123.14-19.63 123.94-17.55 123.94-14.75L123.94-14.75 106.34-14.45Q106.34-10.65 107.17-7.78 107.99-4.9 109.84-3.33 111.69-1.75 114.59-1.75L114.59-1.75Q116.14-1.75 117.77-2.3 119.39-2.85 120.79-3.8 122.19-4.75 123.04-5.9L123.04-5.9 124.24-4.9Q122.89-2.8 120.99-1.55 119.09-0.3 117.09 0.25 115.09 0.8 113.39 0.8ZM106.49-16.55L106.49-16.55 119.24-16.55Q119.24-18.35 118.72-20.03 118.19-21.7 116.99-22.78 115.79-23.85 113.84-23.85L113.84-23.85Q110.94-23.85 109.02-22.13 107.09-20.4 106.49-16.55ZM132.54-24.55L129.24-24.55 128.79-35.8 132.99-35.8 132.54-24.55ZM148.54 0.8L148.54 0.8Q146.04 0.8 144.09 0.13 142.14-0.55 140.89-1.4L140.89-1.4 141.09 0.35 138.99 0.35 138.69-8.25 140.24-8.25Q140.34-6.2 141.39-4.58 142.44-2.95 144.09-2.05 145.74-1.15 147.64-1.15L147.64-1.15Q148.94-1.15 150.19-1.58 151.44-2 152.29-2.88 153.14-3.75 153.14-5.1L153.14-5.1Q153.14-6.5 152.31-7.43 151.49-8.35 150.14-9.05 148.79-9.75 147.24-10.35L147.24-10.35Q145.74-10.95 144.24-11.6 142.74-12.25 141.46-13.15 140.19-14.05 139.44-15.35 138.69-16.65 138.69-18.55L138.69-18.55Q138.69-19.6 139.09-20.85 139.49-22.1 140.44-23.23 141.39-24.35 143.04-25.08 144.69-25.8 147.24-25.8L147.24-25.8Q148.59-25.8 150.24-25.35 151.89-24.9 153.44-23.65L153.44-23.65 153.34-25.55 155.44-25.55 155.44-16.8 153.84-16.8Q153.74-18.55 153.04-20.18 152.34-21.8 150.99-22.88 149.64-23.95 147.49-23.95L147.49-23.95Q145.19-23.95 143.89-22.8 142.59-21.65 142.59-20.15L142.59-20.15Q142.59-18.6 143.56-17.57 144.54-16.55 146.09-15.8 147.64-15.05 149.39-14.35L149.39-14.35Q151.29-13.55 153.09-12.6 154.89-11.65 156.04-10.23 157.19-8.8 157.19-6.55L157.19-6.55Q157.19-4.05 155.91-2.4 154.64-0.75 152.66 0.03 150.69 0.8 148.54 0.8ZM191.73 0.8L191.73 0.8Q186.73 0.8 182.88-1.3 179.03-3.4 176.88-7.35 174.73-11.3 174.73-16.75L174.73-16.75Q174.73-20.3 175.81-23.68 176.88-27.05 179.06-29.8 181.23-32.55 184.51-34.18 187.78-35.8 192.13-35.8L192.13-35.8Q193.93-35.8 195.78-35.48 197.63-35.15 199.36-34.52 201.08-33.9 202.48-33.05L202.48-33.05 202.28-35.45 205.03-35.45 205.03-24 203.23-24Q203.03-27.15 201.56-29.33 200.08-31.5 197.73-32.65 195.38-33.8 192.48-33.8L192.48-33.8Q189.83-33.8 187.51-32.63 185.18-31.45 183.41-29.33 181.63-27.2 180.63-24.3 179.63-21.4 179.63-17.9L179.63-17.9Q179.63-13.2 181.33-9.5 183.03-5.8 186.06-3.7 189.08-1.6 193.03-1.6L193.03-1.6Q194.38-1.6 195.86-1.85 197.33-2.1 198.81-2.68 200.28-3.25 201.58-4.1L201.58-4.1 201.58-10.2Q201.58-11.4 201.58-12.63 201.58-13.85 201.58-15.05L201.58-15.05Q200.73-15 199.83-14.95 198.93-14.9 198.08-14.85L198.08-14.85 198.08-17.05 209.38-17.05 209.38-15.4Q207.98-15.4 207.23-14.68 206.48-13.95 206.18-12.93 205.88-11.9 205.83-10.93 205.78-9.95 205.78-9.45L205.78-9.45 205.78-1.8 204.43-1.8Q203.63-1.8 202.23-1.5 200.83-1.2 199.03-0.5L199.03-0.5Q197.48 0.1 195.43 0.45 193.38 0.8 191.73 0.8ZM212.63 0L212.63-1.5Q214.18-1.5 214.78-2.27 215.38-3.05 215.48-4.42 215.58-5.8 215.58-7.6L215.58-7.6 215.58-19Q215.58-19.8 215.61-20.6 215.63-21.4 215.78-22.25L215.78-22.25Q214.88-22.2 214.01-22.18 213.13-22.15 212.23-22.1L212.23-22.1 212.23-24.15 213.78-24.15Q215.93-24.15 216.76-24.58 217.58-25 218.13-25.5L218.13-25.5 219.58-25.5Q219.68-24.7 219.73-23.53 219.78-22.35 219.83-20.55L219.83-20.55Q220.58-21.8 221.88-23 223.18-24.2 224.81-25 226.43-25.8 228.23-25.8L228.23-25.8Q229.63-25.8 230.68-25.05 231.73-24.3 231.73-22.65L231.73-22.65Q231.73-22.25 231.48-21.68 231.23-21.1 230.68-20.68 230.13-20.25 229.23-20.25L229.23-20.25Q228.13-20.3 227.48-21.13 226.83-21.95 226.98-23.05L226.98-23.05Q225.73-23.1 224.41-22.4 223.08-21.7 221.93-20.48 220.78-19.25 219.88-17.6L219.88-17.6 219.93-5.3Q219.93-4.3 219.91-3.53 219.88-2.75 219.73-1.9L219.73-1.9Q220.53-1.95 221.31-1.98 222.08-2 222.88-2.05L222.88-2.05 222.88 0 212.63 0ZM246.03 0.8L246.03 0.8Q242.58 0.8 239.8-0.83 237.03-2.45 235.43-5.43 233.83-8.4 233.83-12.45L233.83-12.45Q233.83-15.95 235.4-19 236.98-22.05 239.83-23.93 242.68-25.8 246.43-25.8L246.43-25.8Q248.53-25.8 250.35-25.13 252.18-24.45 253.58-23.08 254.98-21.7 255.78-19.63 256.58-17.55 256.58-14.75L256.58-14.75 238.98-14.45Q238.98-10.65 239.8-7.78 240.63-4.9 242.48-3.33 244.33-1.75 247.23-1.75L247.23-1.75Q248.78-1.75 250.4-2.3 252.03-2.85 253.43-3.8 254.83-4.75 255.68-5.9L255.68-5.9 256.88-4.9Q255.53-2.8 253.63-1.55 251.73-0.3 249.73 0.25 247.73 0.8 246.03 0.8ZM239.13-16.55L239.13-16.55 251.88-16.55Q251.88-18.35 251.35-20.03 250.83-21.7 249.63-22.78 248.43-23.85 246.48-23.85L246.48-23.85Q243.58-23.85 241.65-22.13 239.73-20.4 239.13-16.55ZM272.88 0.8L272.88 0.8Q269.43 0.8 266.65-0.83 263.88-2.45 262.28-5.43 260.68-8.4 260.68-12.45L260.68-12.45Q260.68-15.95 262.25-19 263.83-22.05 266.68-23.93 269.53-25.8 273.28-25.8L273.28-25.8Q275.38-25.8 277.2-25.13 279.03-24.45 280.43-23.08 281.83-21.7 282.63-19.63 283.43-17.55 283.43-14.75L283.43-14.75 265.83-14.45Q265.83-10.65 266.65-7.78 267.48-4.9 269.33-3.33 271.18-1.75 274.08-1.75L274.08-1.75Q275.63-1.75 277.25-2.3 278.88-2.85 280.28-3.8 281.68-4.75 282.53-5.9L282.53-5.9 283.73-4.9Q282.38-2.8 280.48-1.55 278.58-0.3 276.58 0.25 274.58 0.8 272.88 0.8ZM265.98-16.55L265.98-16.55 278.73-16.55Q278.73-18.35 278.2-20.03 277.68-21.7 276.48-22.78 275.28-23.85 273.33-23.85L273.33-23.85Q270.43-23.85 268.5-22.13 266.58-20.4 265.98-16.55ZM298.07 0L287.87 0 287.87-1.5Q289.42-1.5 290.02-2.27 290.62-3.05 290.72-4.42 290.82-5.8 290.82-7.6L290.82-7.6 290.87-19Q290.87-19.8 290.9-20.6 290.92-21.4 291.07-22.25L291.07-22.25Q290.17-22.2 289.3-22.15 288.42-22.1 287.52-22.05L287.52-22.05 287.52-24.15Q289.72-24.15 290.85-24.35 291.97-24.55 292.52-24.85 293.07-25.15 293.42-25.5L293.42-25.5 294.87-25.5Q294.92-25.15 294.95-24.7 294.97-24.25 295.02-23.7 295.07-23.15 295.07-22.45L295.07-22.45Q296.17-23.4 297.5-24.15 298.82-24.9 300.3-25.35 301.77-25.8 303.22-25.8L303.22-25.8Q307.57-25.8 309.57-23.08 311.57-20.35 311.57-14.6L311.57-14.6 311.57-5.3Q311.57-4.3 311.55-3.53 311.52-2.75 311.37-1.9L311.37-1.9Q312.17-1.95 312.95-1.98 313.72-2 314.52-2.05L314.52-2.05 314.52 0 304.32 0 304.32-1.5Q305.87-1.5 306.47-2.27 307.07-3.05 307.17-4.42 307.27-5.8 307.27-7.6L307.27-7.6 307.27-14.6Q307.22-18.9 305.85-21.1 304.47-23.3 301.52-23.25L301.52-23.25Q299.72-23.2 298-22.3 296.27-21.4 295.12-20L295.12-20Q295.17-19.6 295.17-19.1 295.17-18.6 295.17-18.05L295.17-18.05 295.12-5.3Q295.12-4.3 295.1-3.53 295.07-2.75 294.92-1.9L294.92-1.9Q295.72-1.95 296.5-1.98 297.27-2 298.07-2.05L298.07-2.05 298.07 0ZM328.47 0.8L328.47 0.8Q325.97 0.8 324.02 0.13 322.07-0.55 320.82-1.4L320.82-1.4 321.02 0.35 318.92 0.35 318.62-8.25 320.17-8.25Q320.27-6.2 321.32-4.58 322.37-2.95 324.02-2.05 325.67-1.15 327.57-1.15L327.57-1.15Q328.87-1.15 330.12-1.58 331.37-2 332.22-2.88 333.07-3.75 333.07-5.1L333.07-5.1Q333.07-6.5 332.25-7.43 331.42-8.35 330.07-9.05 328.72-9.75 327.17-10.35L327.17-10.35Q325.67-10.95 324.17-11.6 322.67-12.25 321.4-13.15 320.12-14.05 319.37-15.35 318.62-16.65 318.62-18.55L318.62-18.55Q318.62-19.6 319.02-20.85 319.42-22.1 320.37-23.23 321.32-24.35 322.97-25.08 324.62-25.8 327.17-25.8L327.17-25.8Q328.52-25.8 330.17-25.35 331.82-24.9 333.37-23.65L333.37-23.65 333.27-25.55 335.37-25.55 335.37-16.8 333.77-16.8Q333.67-18.55 332.97-20.18 332.27-21.8 330.92-22.88 329.57-23.95 327.42-23.95L327.42-23.95Q325.12-23.95 323.82-22.8 322.52-21.65 322.52-20.15L322.52-20.15Q322.52-18.6 323.5-17.57 324.47-16.55 326.02-15.8 327.57-15.05 329.32-14.35L329.32-14.35Q331.22-13.55 333.02-12.6 334.82-11.65 335.97-10.23 337.12-8.8 337.12-6.55L337.12-6.55Q337.12-4.05 335.85-2.4 334.57-0.75 332.6 0.03 330.62 0.8 328.47 0.8Z" opacity="1" transform="matrix(1,0,0,1,0,0)" fill="#152232" class="wordmark-text-0" data-fill-palette-color="primary" id="text-0"></path></svg></g></svg></g></svg></g></svg></g><g transform="matrix(1,0,0,1,154.9137415855377,0)"><svg viewBox="0 0 85.6925168289246 120.80222294670851" height="120.80222294670851" width="85.6925168289246"><g><svg xmlns="http://www.w3.org/2000/svg" xmlns:xlink="http://www.w3.org/1999/xlink" version="1.1" x="0" y="0" viewBox="19.47 4.7059999999999995 60.593 85.419" enable-background="new 0 0 100 100" xml:space="preserve" height="120.80222294670851" width="85.6925168289246" class="icon-icon-0" data-fill-palette-color="accent" id="icon-0"><polygon points="68.45,68.714 64.25,90.125 40.125,90.125 34.429,68.714 " fill="#5ebc67" data-fill-palette-color="accent"></polygon><path d="M45.532 48.833c-0.75-0.333-13.938-3.875-16.5-7s-9.562-4.375-9.562-4.375c12-0.125 17.25 1.562 17.25 1.562 7.938 0.938 10.031 9.938 10.031 9.938l0 0 3.75 3.125-0.042-2.5c0 0-1.042-3.542-1-3.833s-0.125-5.083-0.125-5.083-1.708-4.333-3.958-6.917-4.083-6.168 0.958-16.71c0 0 1.75-2.5 2.083-5.292s4.166-7.042 4.166-7.042S64.416 18.666 51.333 37c0 0-1.177 1.938-1.177 3.719S50.648 48.248 51.25 49l1.594-2.125c0 0 2.031-9 9.969-9.938 0 0 5.25-1.688 17.25-1.562 0 0-7 1.25-9.562 4.375s-15.75 6.667-16.5 7-2.438 3.917-2.438 3.917 0.375 8.751 1 10.167l18.425-0.022-0.737 5.771-1.62 0.035-34.255 0.007h-1.25l-0.583-5.791h19l-0.875-6.667c0 0-0.12-0.965-1.625-2.125l-2.5-2.125L45.532 48.833z" fill="#5ebc67" data-fill-palette-color="accent"></path></svg></g></svg></g><g></g></svg></g><defs></defs></svg><rect width="395.52" height="192.83344751548594" fill="none" stroke="none" visibility="hidden"></rect></g></svg></g></svg>